<svg xmlns="http://www.w3.org/2000/svg" viewBox="0 0 750 500"><g id="freepik--background-simple--inject-38"><path d="M614.53,452.47a252.27,252.27,0,0,0-32.95-7.67C531,436.75,414.48,434,358,436.43c-73.33,3.22-305.69,57.12-323.25,7.82S22.36,33.71,56.44,26.21s154.91,22,226.17,24.17S524.27,24.07,594.5,20.85s76.42,8.58,93,71.82,34.08,271.19,31,319.42C715.79,453.09,640.78,460.38,614.53,452.47Z" style="fill:#92E3A9"></path><path d="M614.53,452.47a252.27,252.27,0,0,0-32.95-7.67C531,436.75,414.48,434,358,436.43c-73.33,3.22-305.69,57.12-323.25,7.82S22.36,33.71,56.44,26.21s154.91,22,226.17,24.17S524.27,24.07,594.5,20.85s76.42,8.58,93,71.82,34.08,271.19,31,319.42C715.79,453.09,640.78,460.38,614.53,452.47Z" style="fill:#fff;opacity:0.7000000000000001"></path></g><g id="freepik--Clouds--inject-38"><path d="M213.9,160.15a15.44,15.44,0,0,1-7.22-7.23c-2.75-5.51-9.93-16.61-23.41-17.19-22.17-1-29.8,19.19-35.74,23.35s-7.13-4.16-22-3-18.42,8.32-23.18,10.11-9.51-4.76-18.42-3-14.26,8.92-16,8.92-17.23,5.35-17.23,5.35H252.12s-3.56-17.83-12.48-21.4C232,153.07,224.75,165.11,213.9,160.15Z" style="fill:none;stroke:#263238;stroke-miterlimit:10"></path><path d="M613.55,58.93A14,14,0,0,1,607,52.38c-2.49-5-9-15.05-21.22-15.58-20.1-.88-27,17.4-32.4,21.17s-6.46-3.77-19.93-2.69-16.7,7.54-21,9.15-8.61-4.31-16.69-2.69-12.93,8.08-14.55,8.08-15.62,4.85-15.62,4.85H648.2S645,58.51,636.88,55.28C630,52.51,623.39,63.43,613.55,58.93Z" style="fill:none;stroke:#263238;stroke-miterlimit:10"></path></g><g id="freepik--Trees--inject-38"><path d="M452.81,104.48s6.16-7.24-.2-19.39c0,0-15.31,10.48-14,8.63a161.13,161.13,0,0,0,7.91-15.65,3.82,3.82,0,0,0,0-1.81,60.11,60.11,0,0,0-6-6c-3.2,2.51-7.88,6-7.3,4.37.39-1.1,1.65-4.5,2.91-7.89-1-.71-1.59-1.09-1.59-1.09l-55.65,69.77Z" style="fill:#92E3A9"></path><path d="M392.87,113s-8.32-3.32-22.24-2.15c-1.89,3.76-3.71,7.35-4.23,8.28-1,1.71-5.34-3.49-8.79-6-1.4.36-2.84.77-4.31,1.23-.16,2.41.35,5.92-.36,7.68-1,2.56-2.53-2-5.39-5.69a108.08,108.08,0,0,0-13.18,6.14c-13.29,7.3-23.38,14.83-31,23.18.3,2.4.43,5.35-.42,7.16s-4.67,3-8.72,5.32c-6,10.48-9.24,22.38-10.55,36.55a58.73,58.73,0,0,0,1.33,18c3,2.74,8.56,1.45,9.75,3.32,1.32,2.08-6.22,4.8-6.22,4.8l-1.22.13c7.58,22.66,23.76,41.15,23.76,41.15l82.12-63.67s-21.76,26.3-18.42,24.53S411,183.15,411,183.15l.25-41.83-11.1,12.52Z" style="fill:#92E3A9"></path><path d="M329.2,223.43s-5.22,2.77-7.15,4.8-2.8,7-2.8,7a21.59,21.59,0,0,0,6.2-3.12C328,230.06,329.2,223.43,329.2,223.43Z" style="fill:#fff"></path><path d="M346.31,221s-5.21,2.76-7.14,4.79-2.81,7-2.81,7a21.29,21.29,0,0,0,6.2-3.12C345.15,227.67,346.31,221,346.31,221Z" style="fill:#fff"></path><path d="M320.9,203.58s-5.86.79-8.37,2-5,5.61-5,5.61a21.67,21.67,0,0,0,6.9-.79C317.52,209.4,320.9,203.58,320.9,203.58Z" style="fill:#fff"></path><path d="M343,200.73s-5.85.8-8.36,2-5,5.6-5,5.6a21.67,21.67,0,0,0,6.9-.79C339.58,206.56,343,200.73,343,200.73Z" style="fill:#fff"></path><path d="M362.72,186.21s-5.85.8-8.36,2-5.05,5.61-5.05,5.61a21.6,21.6,0,0,0,6.89-.79C359.34,192,362.72,186.21,362.72,186.21Z" style="fill:#fff"></path><path d="M321.67,184s-5.51-2.12-8.31-2.25-7.12,2.48-7.12,2.48a21.38,21.38,0,0,0,6.42,2.63C315.91,187.46,321.67,184,321.67,184Z" style="fill:#fff"></path><path d="M332.32,160.24s-3.42-4.81-5.68-6.47-7.31-1.87-7.31-1.87a21.54,21.54,0,0,0,3.9,5.74C325.59,160,332.32,160.24,332.32,160.24Z" style="fill:#fff"></path><path d="M346.27,180.77s-4.52-3.79-7.13-4.82-7.54,0-7.54,0a21.43,21.43,0,0,0,5.22,4.56C339.69,182.19,346.27,180.77,346.27,180.77Z" style="fill:#fff"></path><path d="M351.19,150.35s-.59-5.88-1.73-8.44-5.42-5.24-5.42-5.24a21.51,21.51,0,0,0,.54,6.92C345.49,146.76,351.19,150.35,351.19,150.35Z" style="fill:#fff"></path><path d="M373.22,146.78s2.17-5.49,2.32-8.29-2.42-7.15-2.42-7.15a21.77,21.77,0,0,0-2.69,6.41C369.79,141,373.22,146.78,373.22,146.78Z" style="fill:#fff"></path><path d="M365.39,166.27s2.17-5.49,2.32-8.29-2.43-7.14-2.43-7.14a21.46,21.46,0,0,0-2.68,6.4C362,160.48,365.39,166.27,365.39,166.27Z" style="fill:#fff"></path><path d="M388.18,162.11s3.73-4.59,4.71-7.21-.15-7.54-.15-7.54a21.57,21.57,0,0,0-4.49,5.29C386.66,155.55,388.18,162.11,388.18,162.11Z" style="fill:#fff"></path><path d="M428,60.76S423.86,50.89,411.26,40c-4.79,1.52-9.38,3-10.61,3.28-2.27.6-1.46-7.46-2.15-12.55q-2.22-1.35-4.65-2.66c-2.19,1.87-4.76,5.24-6.86,6.1-3,1.26-.4-3.83.37-9.34a126.69,126.69,0,0,0-16.24-6.16c-17.3-5.27-32.15-7.62-45.6-7.13-1.79,2.25-4.22,4.82-6.47,5.6-2.41.83-6.44-1.5-11.81-3-14,3.58-26.83,10.76-40,21.45A69.82,69.82,0,0,0,253,51.65c.18,4.87,5.9,8.52,5.29,11.09-.68,2.86-9.29-1.31-9.29-1.31l-1.12-.94c-13,25.37-15.36,54.61-15.36,54.61l122.85,17.11s-40.61,3.32-36.31,4.7,64.15-2.18,64.15-2.18l36-34.65-20,1Z" style="fill:#92E3A9"></path><path d="M280.55,98.37s-6.72-2.15-10.06-2.11-8.32,3.44-8.32,3.44a25.75,25.75,0,0,0,7.83,2.69C273.91,102.91,280.55,98.37,280.55,98.37Z" style="fill:#fff"></path><path d="M296.86,111s-6.72-2.15-10.06-2.11-8.32,3.44-8.32,3.44a25.75,25.75,0,0,0,7.83,2.69C290.22,115.53,296.86,111,296.86,111Z" style="fill:#fff"></path><path d="M290.59,74.72s-5.56-4.33-8.71-5.45-9,.36-9,.36a25.81,25.81,0,0,0,6.43,5.24C282.8,76.69,290.59,74.72,290.59,74.72Z" style="fill:#fff"></path><path d="M311.41,91.2s-5.56-4.33-8.71-5.45-9,.36-9,.36a25.73,25.73,0,0,0,6.42,5.23C303.61,93.17,311.41,91.2,311.41,91.2Z" style="fill:#fff"></path><path d="M340.29,96s-5.56-4.33-8.71-5.45-9,.36-9,.36A25.73,25.73,0,0,0,329,96.13C332.5,98,340.29,96,340.29,96Z" style="fill:#fff"></path><path d="M308,59.06s-2.79-6.48-5-9-8.06-4-8.06-4A25.64,25.64,0,0,0,298,53.74C300.21,57,308,59.06,308,59.06Z" style="fill:#fff"></path><path d="M337.14,48.37s1.27-6.94.8-10.25-4.49-7.8-4.49-7.8a25.66,25.66,0,0,0-1.66,8.12C331.79,42.38,337.14,48.37,337.14,48.37Z" style="fill:#fff"></path><path d="M331.23,77.4s-.53-7-1.82-10.11-6.32-6.41-6.32-6.41a25.55,25.55,0,0,0,.45,8.27C324.53,73,331.23,77.4,331.23,77.4Z" style="fill:#fff"></path><path d="M361.33,56.25s4.53-5.4,5.76-8.51,0-9,0-9A25.47,25.47,0,0,0,361.6,45C359.64,48.39,361.33,56.25,361.33,56.25Z" style="fill:#fff"></path><path d="M382.74,72.1s6.5-2.73,9-4.93,4.09-8,4.09-8a25.75,25.75,0,0,0-7.71,3C384.83,64.34,382.74,72.1,382.74,72.1Z" style="fill:#fff"></path><path d="M359.56,81.66s6.5-2.73,9-4.94,4.09-8,4.09-8a25.51,25.51,0,0,0-7.71,3C361.65,73.9,359.56,81.66,359.56,81.66Z" style="fill:#fff"></path><path d="M382.11,97.66s7-.64,10.08-2,6.32-6.42,6.32-6.42a25.92,25.92,0,0,0-8.27.58C386.45,90.9,382.11,97.66,382.11,97.66Z" style="fill:#fff"></path><polygon points="425.28 198.42 397.67 154.53 387.73 139.19 413.88 109.07 384.26 133.83 345.39 73.85 373.81 126.28 303.72 108.56 374.61 133.41 398.68 180.19 323.51 154.68 425.28 198.42" style="fill:#263238;stroke:#263238;stroke-linecap:round;stroke-linejoin:round"></polygon><path d="M392.06,161s-4.43-5.2.14-13.93c0,0,11,7.53,10.07,6.2a118.07,118.07,0,0,1-5.69-11.24,2.82,2.82,0,0,1,0-1.31,45.37,45.37,0,0,1,4.29-4.34c2.3,1.81,5.66,4.3,5.25,3.14-.28-.79-1.19-3.23-2.09-5.66.71-.52,1.14-.79,1.14-.79l40,50.12Z" style="fill:#92E3A9"></path><path d="M435.12,167.18s6-2.39,16-1.55c1.35,2.71,2.66,5.29,3,6,.69,1.23,3.83-2.5,6.31-4.34,1,.26,2,.55,3.1.88.11,1.73-.26,4.25.25,5.52.73,1.84,1.82-1.44,3.87-4.09a78.7,78.7,0,0,1,9.48,4.41c9.54,5.24,16.79,10.65,22.23,16.65-.22,1.72-.3,3.85.31,5.14s3.35,2.15,6.26,3.82c4.33,7.54,6.64,16.08,7.58,26.26a42.23,42.23,0,0,1-1,12.91c-2.17,2-6.15,1-7,2.38-.95,1.49,4.47,3.45,4.47,3.45l.88.09c-5.46,16.28-17.08,29.56-17.08,29.56l-59-45.74s15.63,18.89,13.23,17.62-26-28.55-26-28.55l-.19-30.05,8,9Z" style="fill:#92E3A9"></path><path d="M480.86,246.49a27.44,27.44,0,0,1,5.13,3.44c1.39,1.46,2,5,2,5a15.35,15.35,0,0,1-4.45-2.24C481.69,251.25,480.86,246.49,480.86,246.49Z" style="fill:#fff"></path><path d="M468.56,244.77a27.41,27.41,0,0,1,5.14,3.44c1.39,1.46,2,5,2,5a15.35,15.35,0,0,1-4.45-2.24C469.4,249.53,468.56,244.77,468.56,244.77Z" style="fill:#fff"></path><path d="M486.82,232.22a27.65,27.65,0,0,1,6,1.47c1.81.88,3.63,4,3.63,4a15.4,15.4,0,0,1-5-.57C489.25,236.41,486.82,232.22,486.82,232.22Z" style="fill:#fff"></path><path d="M471,230.18a27.57,27.57,0,0,1,6,1.46c1.8.89,3.62,4,3.62,4a15.32,15.32,0,0,1-4.95-.57C473.4,234.36,471,230.18,471,230.18Z" style="fill:#fff"></path><path d="M456.78,219.75a27.57,27.57,0,0,1,6,1.46c1.8.89,3.62,4,3.62,4a15.65,15.65,0,0,1-5-.57C459.2,223.93,456.78,219.75,456.78,219.75Z" style="fill:#fff"></path><path d="M486.26,218.15a27.47,27.47,0,0,1,6-1.62c2-.09,5.12,1.78,5.12,1.78a15.35,15.35,0,0,1-4.61,1.89C490.41,220.64,486.26,218.15,486.26,218.15Z" style="fill:#fff"></path><path d="M478.62,201.09a27.07,27.07,0,0,1,4.08-4.64c1.62-1.19,5.24-1.35,5.24-1.35a15.54,15.54,0,0,1-2.79,4.13C483.45,200.88,478.62,201.09,478.62,201.09Z" style="fill:#fff"></path><path d="M468.59,215.84a27.08,27.08,0,0,1,5.13-3.46c1.87-.74,5.41,0,5.41,0a15.55,15.55,0,0,1-3.75,3.29C473.32,216.86,468.59,215.84,468.59,215.84Z" style="fill:#fff"></path><path d="M465.06,194a27.66,27.66,0,0,1,1.24-6.06c.83-1.84,3.9-3.77,3.9-3.77a15.6,15.6,0,0,1-.39,5C469.15,191.41,465.06,194,465.06,194Z" style="fill:#fff"></path><path d="M449.23,191.42a27.72,27.72,0,0,1-1.66-5.95c-.11-2,1.74-5.14,1.74-5.14a15.8,15.8,0,0,1,1.93,4.6C451.7,187.26,449.23,191.42,449.23,191.42Z" style="fill:#fff"></path><path d="M454.86,205.42a27.55,27.55,0,0,1-1.67-5.95c-.1-2,1.74-5.13,1.74-5.13a15.37,15.37,0,0,1,1.93,4.6C457.32,201.26,454.86,205.42,454.86,205.42Z" style="fill:#fff"></path><path d="M438.48,202.43a27.7,27.7,0,0,1-3.38-5.17c-.71-1.89.11-5.42.11-5.42a15.33,15.33,0,0,1,3.23,3.8C439.58,197.72,438.48,202.43,438.48,202.43Z" style="fill:#fff"></path><path d="M409.92,129.63s2.94-7.09,12-14.94c3.44,1.1,6.73,2.13,7.62,2.36,1.63.43,1.05-5.36,1.55-9q1.59-1,3.33-1.92c1.58,1.35,3.42,3.77,4.93,4.39,2.18.9.29-2.75-.27-6.72a92,92,0,0,1,11.67-4.42c12.43-3.79,23.1-5.47,32.76-5.12,1.29,1.62,3,3.46,4.65,4s4.63-1.07,8.48-2.16c10.05,2.57,19.27,7.72,28.76,15.4a50.32,50.32,0,0,1,10.23,11.58c-.13,3.49-4.24,6.12-3.8,8,.49,2.06,6.67-.94,6.67-.94l.81-.68c9.37,18.23,11,39.24,11,39.24L462.08,181s29.17,2.39,26.09,3.38-46.09-1.56-46.09-1.56l-25.83-24.89,14.33.68Z" style="fill:#92E3A9"></path><path d="M515.81,156.65s4.82-1.55,7.22-1.52,6,2.47,6,2.47a18.48,18.48,0,0,1-5.63,1.94C520.57,159.9,515.81,156.65,515.81,156.65Z" style="fill:#fff"></path><path d="M504.09,165.72s4.82-1.55,7.23-1.52,6,2.47,6,2.47a18.48,18.48,0,0,1-5.63,1.94C508.86,169,504.09,165.72,504.09,165.72Z" style="fill:#fff"></path><path d="M508.59,139.66s4-3.11,6.26-3.92,6.46.26,6.46.26a18.48,18.48,0,0,1-4.61,3.76C514.19,141.07,508.59,139.66,508.59,139.66Z" style="fill:#fff"></path><path d="M493.64,151.5s4-3.12,6.26-3.92,6.46.26,6.46.26a18.41,18.41,0,0,1-4.62,3.76C499.24,152.91,493.64,151.5,493.64,151.5Z" style="fill:#fff"></path><path d="M472.89,154.94s4-3.12,6.26-3.92,6.46.26,6.46.26A18.41,18.41,0,0,1,481,155C478.49,156.35,472.89,154.94,472.89,154.94Z" style="fill:#fff"></path><path d="M496.1,128.4s2-4.65,3.59-6.44,5.79-2.89,5.79-2.89a18.58,18.58,0,0,1-2.23,5.52C501.68,127,496.1,128.4,496.1,128.4Z" style="fill:#fff"></path><path d="M475.15,120.73s-.91-5-.57-7.36,3.22-5.61,3.22-5.61a18.62,18.62,0,0,1,1.2,5.83C479,116.42,475.15,120.73,475.15,120.73Z" style="fill:#fff"></path><path d="M479.4,141.58s.38-5.05,1.31-7.26,4.54-4.61,4.54-4.61a18.4,18.4,0,0,1-.33,5.94C484.21,138.39,479.4,141.58,479.4,141.58Z" style="fill:#fff"></path><path d="M457.78,126.39s-3.26-3.88-4.14-6.11,0-6.47,0-6.47a18.3,18.3,0,0,1,3.92,4.47C459,120.74,457.78,126.39,457.78,126.39Z" style="fill:#fff"></path><path d="M442.4,137.78s-4.67-2-6.48-3.55-2.94-5.76-2.94-5.76a18.35,18.35,0,0,1,5.54,2.19C440.89,132.2,442.4,137.78,442.4,137.78Z" style="fill:#fff"></path><path d="M459.05,144.64s-4.67-2-6.48-3.54-2.93-5.77-2.93-5.77a18.65,18.65,0,0,1,5.53,2.19C457.55,139.07,459.05,144.64,459.05,144.64Z" style="fill:#fff"></path><path d="M442.85,156.14s-5.05-.46-7.25-1.43-4.53-4.61-4.53-4.61a18.41,18.41,0,0,1,5.93.42C439.73,151.28,442.85,156.14,442.85,156.14Z" style="fill:#fff"></path><polygon points="411.83 228.52 431.67 196.99 438.81 185.97 420.03 164.34 441.31 182.12 469.23 139.03 448.81 176.7 499.16 163.97 448.24 181.82 430.94 215.42 484.94 197.1 411.83 228.52" style="fill:#263238;stroke:#263238;stroke-linecap:round;stroke-linejoin:round"></polygon><path d="M541.81,157.42s-5.35-.95-7-8.63c0,0,10.57-.93,9.33-1.28a91.25,91.25,0,0,1-9.18-4,2.19,2.19,0,0,1-.68-.79,34.59,34.59,0,0,1,.45-4.84c2.32,0,5.65-.22,4.81-.72l-4.15-2.42c.18-.68.3-1.06.3-1.06l49.92,10.58Z" style="fill:#92E3A9"></path><path d="M571.38,139.42s2.46-4.49,9-9c2.2,1,4.31,1.91,4.88,2.12,1.05.41,1.09-3.47,1.68-5.86.75-.35,1.54-.69,2.35-1,.95,1,2,2.74,2.95,3.26,1.38.76.39-1.8.31-4.47a62.31,62.31,0,0,1,8-2.08c8.52-1.61,15.71-2,22.09-1a8.36,8.36,0,0,0,2.78,3c1.11.52,3.15-.37,5.78-.82,6.48,2.44,12.22,6.53,17.94,12.31a33.43,33.43,0,0,1,5.94,8.41c-.34,2.31-3.26,3.75-3.1,5,.17,1.4,4.49-.14,4.49-.14l.59-.38c4.88,12.76,4.45,26.8,4.45,26.8l-59.38,1.72s19.16,3.71,17,4.14S588.83,177,588.83,177L573.52,158.6l9.45,1.5Z" style="fill:#92E3A9"></path><path d="M639.59,165a22.22,22.22,0,0,1,4.9-.48c1.59.19,3.78,2.07,3.78,2.07a12.3,12.3,0,0,1-3.87.88C642.51,167.54,639.59,165,639.59,165Z" style="fill:#fff"></path><path d="M631.16,170.19a22.22,22.22,0,0,1,4.9-.48c1.59.19,3.78,2.07,3.78,2.07a12.21,12.21,0,0,1-3.87.88C634.09,172.7,631.16,170.19,631.16,170.19Z" style="fill:#fff"></path><path d="M636,153.25a22.4,22.4,0,0,1,4.43-2.14c1.56-.37,4.27.64,4.27.64a12.44,12.44,0,0,1-3.33,2.16C639.65,154.59,636,153.25,636,153.25Z" style="fill:#fff"></path><path d="M625.27,160a22.1,22.1,0,0,1,4.43-2.14c1.56-.36,4.27.65,4.27.65a12.53,12.53,0,0,1-3.33,2.15C628.88,161.35,625.27,160,625.27,160Z" style="fill:#fff"></path><path d="M611.27,160.77a22.1,22.1,0,0,1,4.43-2.14c1.56-.36,4.27.65,4.27.65a12.48,12.48,0,0,1-3.34,2.15C614.88,162.12,611.27,160.77,611.27,160.77Z" style="fill:#fff"></path><path d="M628.58,144.88a21.81,21.81,0,0,1,2.85-4c1.19-1.07,4.05-1.49,4.05-1.49a12.26,12.26,0,0,1-1.88,3.49C632.39,144.32,628.58,144.88,628.58,144.88Z" style="fill:#fff"></path><path d="M615.26,138.27a22.31,22.31,0,0,1,.15-4.92c.4-1.55,2.55-3.48,2.55-3.48a12.38,12.38,0,0,1,.37,3.95C618.12,135.7,615.26,138.27,615.26,138.27Z" style="fill:#fff"></path><path d="M616.55,152.4a21.87,21.87,0,0,1,1.4-4.72c.78-1.4,3.34-2.72,3.34-2.72a12.28,12.28,0,0,1-.64,3.91C620,150.63,616.55,152.4,616.55,152.4Z" style="fill:#fff"></path><path d="M603.33,140.76a22.34,22.34,0,0,1-2.3-4.36c-.42-1.54.49-4.28.49-4.28a12.33,12.33,0,0,1,2.27,3.25C604.55,137.1,603.33,140.76,603.33,140.76Z" style="fill:#fff"></path><path d="M592.31,147.18a21.74,21.74,0,0,1-4-2.81c-1.09-1.18-1.53-4-1.53-4a12.48,12.48,0,0,1,3.51,1.85C591.72,143.38,592.31,147.18,592.31,147.18Z" style="fill:#fff"></path><path d="M602.85,152.94a22.27,22.27,0,0,1-4-2.82c-1.08-1.18-1.52-4-1.52-4a12.48,12.48,0,0,1,3.51,1.85C602.26,149.14,602.85,152.94,602.85,152.94Z" style="fill:#fff"></path><path d="M591.27,159.39a22.13,22.13,0,0,1-4.69-1.48c-1.39-.79-2.67-3.38-2.67-3.38a12.34,12.34,0,0,1,3.9.71C589.56,155.94,591.27,159.39,591.27,159.39Z" style="fill:#fff"></path><path d="M536.9,129.09s-1.78-5.84-.18-15.24c2.67-1.07,5.21-2.1,5.88-2.4,1.21-.56-2.07-3.83-3.61-6.32.32-.94.68-1.89,1.08-2.87,1.65,0,4,.58,5.24.2,1.8-.54-1.21-1.83-3.56-4a74.51,74.51,0,0,1,4.94-8.61c5.72-8.62,11.42-15,17.54-19.72a10,10,0,0,0,4.89.12c1.36-.5,2.3-3,4.11-5.62,7.48-3.5,15.76-5,25.47-5.07a39.88,39.88,0,0,1,12.14,1.94c1.69,2.21.49,5.9,1.69,6.82s3.62-4,3.62-4l.16-.82c15,6.46,26.62,18.53,26.62,18.53l-48,52.17s19.14-13.28,17.74-11.11-29.11,22.34-29.11,22.34l-28.46-2.23,9.15-6.83Z" style="fill:#92E3A9"></path><path d="M615.64,92.15a26.29,26.29,0,0,1,3.67-4.59c1.49-1.2,4.92-1.5,4.92-1.5a14.61,14.61,0,0,1-2.48,4C620.21,91.74,615.64,92.15,615.64,92.15Z" style="fill:#fff"></path><path d="M613,103.65a26,26,0,0,1,3.68-4.59c1.49-1.2,4.92-1.5,4.92-1.5a14.61,14.61,0,0,1-2.48,4C617.6,103.24,613,103.65,613,103.65Z" style="fill:#fff"></path><path d="M602.61,85.36a26.14,26.14,0,0,1,1.87-5.57c1-1.64,4.1-3.11,4.1-3.11a14.64,14.64,0,0,1-.94,4.64C606.77,83.4,602.61,85.36,602.61,85.36Z" style="fill:#fff"></path><path d="M599.41,100.19a26.52,26.52,0,0,1,1.86-5.57c1-1.63,4.11-3.11,4.11-3.11a14.72,14.72,0,0,1-.94,4.65C603.56,98.23,599.41,100.19,599.41,100.19Z" style="fill:#fff"></path><path d="M588.4,112.8a26.52,26.52,0,0,1,1.86-5.57c1-1.64,4.1-3.11,4.1-3.11a14.48,14.48,0,0,1-.93,4.64C592.55,110.84,588.4,112.8,588.4,112.8Z" style="fill:#fff"></path><path d="M589.24,84.76a26.53,26.53,0,0,1-1-5.78c.08-1.91,2.1-4.7,2.1-4.7a15,15,0,0,1,1.42,4.52C591.94,81,589.24,84.76,589.24,84.76Z" style="fill:#fff"></path><path d="M572.49,90.64a26.29,26.29,0,0,1-4.07-4.24c-1-1.63-.86-5.07-.86-5.07a14.62,14.62,0,0,1,3.68,3C572.67,86,572.49,90.64,572.49,90.64Z" style="fill:#fff"></path><path d="M585.64,101.31a26,26,0,0,1-2.86-5.13c-.55-1.83.45-5.13.45-5.13A14.49,14.49,0,0,1,586,94.87C587,96.91,585.64,101.31,585.64,101.31Z" style="fill:#fff"></path><path d="M564.67,102.9a26.5,26.5,0,0,1-5.63-1.66c-1.67-.93-3.26-4-3.26-4a14.84,14.84,0,0,1,4.68.77C562.56,98.82,564.67,102.9,564.67,102.9Z" style="fill:#fff"></path><path d="M561,117.68a26.3,26.3,0,0,1-5.77,1.09c-1.91,0-4.72-2-4.72-2a14.66,14.66,0,0,1,4.51-1.46C557.24,115,561,117.68,561,117.68Z" style="fill:#fff"></path><path d="M574.69,113.47a26.12,26.12,0,0,1-5.78,1.1c-1.91-.06-4.71-2.06-4.71-2.06a14.66,14.66,0,0,1,4.5-1.45C570.94,110.81,574.69,113.47,574.69,113.47Z" style="fill:#fff"></path><path d="M570.54,128.73a26.16,26.16,0,0,1-5.17,2.79c-1.84.52-5.12-.54-5.12-.54a14.84,14.84,0,0,1,3.86-2.75C566.17,127.32,570.54,128.73,570.54,128.73Z" style="fill:#fff"></path><polygon points="588.09 188.89 584.33 159.49 583.15 149.1 560.67 145.31 582.74 145.48 578.11 104.88 584.61 138.35 609.11 105.07 586.84 141.78 593.21 171.18 617.13 132.62 588.09 188.89" style="fill:#263238;stroke:#263238;stroke-linecap:round;stroke-linejoin:round"></polygon></g><g id="freepik--House--inject-38"><polyline points="721.64 339.07 154.79 339.07 154.79 482.83 721.73 482.83" style="fill:#b0b0b0;stroke:#263238;stroke-miterlimit:10"></polyline><rect x="154.79" y="339.07" width="566.85" height="27.19" style="fill:#263238;stroke:#263238;stroke-miterlimit:10"></rect><rect x="201.39" y="353.7" width="135.42" height="129.24" style="fill:#b0b0b0;stroke:#263238;stroke-miterlimit:10"></rect><rect x="207.2" y="353.7" width="131.93" height="129.24" style="fill:#92E3A9;stroke:#263238;stroke-miterlimit:10"></rect><rect x="279.27" y="363.29" width="55.21" height="63.93" style="fill:#fff;stroke:#263238;stroke-miterlimit:10"></rect><polygon points="279.27 437.68 279.27 482.73 271.71 482.73 271.71 437.68 215.34 437.68 215.34 482.94 334.48 482.94 334.48 437.68 279.27 437.68" style="fill:#fff;stroke:#263238;stroke-miterlimit:10"></polygon><rect x="215.34" y="363.29" width="56.38" height="63.93" style="fill:#fff;stroke:#263238;stroke-miterlimit:10"></rect><line x1="326.93" y1="381.37" x2="296.99" y2="411.3" style="fill:#fff;stroke:#263238;stroke-miterlimit:10"></line><line x1="321.69" y1="374.4" x2="313.56" y2="382.53" style="fill:#fff;stroke:#263238;stroke-miterlimit:10"></line><line x1="262.99" y1="447.05" x2="237.71" y2="472.33" style="fill:#fff;stroke:#263238;stroke-miterlimit:10"></line><line x1="253.69" y1="381.37" x2="241.2" y2="393.87" style="fill:#fff;stroke:#263238;stroke-miterlimit:10"></line><line x1="243.23" y1="386.02" x2="226.96" y2="402.29" style="fill:#fff;stroke:#263238;stroke-miterlimit:10"></line><line x1="321.11" y1="454.6" x2="308.04" y2="467.68" style="fill:#fff;stroke:#263238;stroke-miterlimit:10"></line><line x1="303.68" y1="440.65" x2="294.38" y2="449.95" style="fill:#fff;stroke:#263238;stroke-miterlimit:10"></line><polyline points="723.63 175.98 300.59 175.98 155.3 315.08 721.33 315.08" style="fill:#fff;stroke:#263238;stroke-miterlimit:10"></polyline><line x1="291.69" y1="185.34" x2="722.59" y2="185.34" style="fill:none;stroke:#263238;stroke-miterlimit:10"></line><line x1="275.35" y1="200.15" x2="722.07" y2="200.15" style="fill:none;stroke:#263238;stroke-miterlimit:10"></line><line x1="255.93" y1="218.55" x2="722.07" y2="218.55" style="fill:none;stroke:#263238;stroke-miterlimit:10"></line><line x1="234.85" y1="239.49" x2="725.18" y2="239.49" style="fill:none;stroke:#263238;stroke-miterlimit:10"></line><line x1="209.16" y1="263.5" x2="723.63" y2="263.5" style="fill:none;stroke:#263238;stroke-miterlimit:10"></line><line x1="182.02" y1="289.9" x2="723.94" y2="289.9" style="fill:none;stroke:#263238;stroke-miterlimit:10"></line><polygon points="723.63 171.56 304.66 171.56 300.59 175.98 723.63 175.98 723.63 171.56" style="fill:#fff;stroke:#263238;stroke-miterlimit:10"></polygon><line x1="239.88" y1="289.68" x2="216.14" y2="314.11" style="fill:none;stroke:#263238;stroke-miterlimit:10"></line><line x1="238.76" y1="263.46" x2="213.28" y2="289.68" style="fill:none;stroke:#263238;stroke-miterlimit:10"></line><line x1="288.75" y1="239.39" x2="265.36" y2="263.46" style="fill:none;stroke:#263238;stroke-miterlimit:10"></line><line x1="279.54" y1="219" x2="259.73" y2="239.39" style="fill:none;stroke:#263238;stroke-miterlimit:10"></line><line x1="327.63" y1="199.38" x2="308.56" y2="219" style="fill:none;stroke:#263238;stroke-miterlimit:10"></line><line x1="313.52" y1="184.98" x2="299.52" y2="199.38" style="fill:none;stroke:#263238;stroke-miterlimit:10"></line><line x1="350.83" y1="175.51" x2="341.63" y2="184.98" style="fill:none;stroke:#263238;stroke-miterlimit:10"></line><line x1="302.72" y1="289.68" x2="278.99" y2="314.11" style="fill:none;stroke:#263238;stroke-miterlimit:10"></line><line x1="301.61" y1="263.46" x2="276.12" y2="289.68" style="fill:none;stroke:#263238;stroke-miterlimit:10"></line><line x1="351.6" y1="239.39" x2="328.21" y2="263.46" style="fill:none;stroke:#263238;stroke-miterlimit:10"></line><line x1="342.39" y1="219" x2="322.58" y2="239.39" style="fill:none;stroke:#263238;stroke-miterlimit:10"></line><line x1="390.48" y1="199.38" x2="371.41" y2="219" style="fill:none;stroke:#263238;stroke-miterlimit:10"></line><line x1="376.36" y1="184.98" x2="362.37" y2="199.38" style="fill:none;stroke:#263238;stroke-miterlimit:10"></line><line x1="413.68" y1="175.51" x2="404.48" y2="184.98" style="fill:none;stroke:#263238;stroke-miterlimit:10"></line><line x1="365.57" y1="289.68" x2="341.83" y2="314.11" style="fill:none;stroke:#263238;stroke-miterlimit:10"></line><line x1="364.46" y1="263.46" x2="338.97" y2="289.68" style="fill:none;stroke:#263238;stroke-miterlimit:10"></line><line x1="414.44" y1="239.39" x2="391.06" y2="263.46" style="fill:none;stroke:#263238;stroke-miterlimit:10"></line><line x1="405.24" y1="219" x2="385.43" y2="239.39" style="fill:none;stroke:#263238;stroke-miterlimit:10"></line><line x1="453.33" y1="199.38" x2="434.26" y2="219" style="fill:none;stroke:#263238;stroke-miterlimit:10"></line><line x1="439.21" y1="184.98" x2="425.21" y2="199.38" style="fill:none;stroke:#263238;stroke-miterlimit:10"></line><line x1="476.53" y1="175.51" x2="467.32" y2="184.98" style="fill:none;stroke:#263238;stroke-miterlimit:10"></line><line x1="428.42" y1="289.68" x2="404.68" y2="314.11" style="fill:none;stroke:#263238;stroke-miterlimit:10"></line><line x1="427.3" y1="263.46" x2="401.82" y2="289.68" style="fill:none;stroke:#263238;stroke-miterlimit:10"></line><line x1="477.29" y1="239.39" x2="453.91" y2="263.46" style="fill:none;stroke:#263238;stroke-miterlimit:10"></line><line x1="468.09" y1="219" x2="448.27" y2="239.39" style="fill:none;stroke:#263238;stroke-miterlimit:10"></line><line x1="516.18" y1="199.38" x2="497.11" y2="219" style="fill:none;stroke:#263238;stroke-miterlimit:10"></line><line x1="502.06" y1="184.98" x2="488.06" y2="199.38" style="fill:none;stroke:#263238;stroke-miterlimit:10"></line><line x1="539.37" y1="175.51" x2="530.17" y2="184.98" style="fill:none;stroke:#263238;stroke-miterlimit:10"></line><line x1="491.27" y1="289.68" x2="467.53" y2="314.11" style="fill:none;stroke:#263238;stroke-miterlimit:10"></line><line x1="490.15" y1="263.46" x2="464.67" y2="289.68" style="fill:none;stroke:#263238;stroke-miterlimit:10"></line><line x1="540.14" y1="239.39" x2="516.75" y2="263.46" style="fill:none;stroke:#263238;stroke-miterlimit:10"></line><line x1="530.93" y1="219" x2="511.12" y2="239.39" style="fill:none;stroke:#263238;stroke-miterlimit:10"></line><line x1="579.02" y1="199.38" x2="559.95" y2="219" style="fill:none;stroke:#263238;stroke-miterlimit:10"></line><line x1="564.91" y1="184.98" x2="550.91" y2="199.38" style="fill:none;stroke:#263238;stroke-miterlimit:10"></line><line x1="602.22" y1="175.51" x2="593.02" y2="184.98" style="fill:none;stroke:#263238;stroke-miterlimit:10"></line><line x1="554.11" y1="289.68" x2="530.38" y2="314.11" style="fill:none;stroke:#263238;stroke-miterlimit:10"></line><line x1="553" y1="263.46" x2="527.51" y2="289.68" style="fill:none;stroke:#263238;stroke-miterlimit:10"></line><line x1="602.99" y1="239.39" x2="579.6" y2="263.46" style="fill:none;stroke:#263238;stroke-miterlimit:10"></line><line x1="593.78" y1="219" x2="573.97" y2="239.39" style="fill:none;stroke:#263238;stroke-miterlimit:10"></line><line x1="641.87" y1="199.38" x2="622.8" y2="219" style="fill:none;stroke:#263238;stroke-miterlimit:10"></line><line x1="627.75" y1="184.98" x2="613.76" y2="199.38" style="fill:none;stroke:#263238;stroke-miterlimit:10"></line><line x1="665.07" y1="175.51" x2="655.87" y2="184.98" style="fill:none;stroke:#263238;stroke-miterlimit:10"></line><line x1="616.96" y1="289.68" x2="593.22" y2="314.11" style="fill:none;stroke:#263238;stroke-miterlimit:10"></line><line x1="615.85" y1="263.46" x2="590.36" y2="289.68" style="fill:none;stroke:#263238;stroke-miterlimit:10"></line><line x1="665.84" y1="239.39" x2="642.45" y2="263.46" style="fill:none;stroke:#263238;stroke-miterlimit:10"></line><line x1="656.63" y1="219" x2="636.82" y2="239.39" style="fill:none;stroke:#263238;stroke-miterlimit:10"></line><line x1="704.72" y1="199.38" x2="685.65" y2="219" style="fill:none;stroke:#263238;stroke-miterlimit:10"></line><line x1="690.6" y1="184.98" x2="676.61" y2="199.38" style="fill:none;stroke:#263238;stroke-miterlimit:10"></line><line x1="679.81" y1="289.68" x2="656.07" y2="314.11" style="fill:none;stroke:#263238;stroke-miterlimit:10"></line><line x1="678.69" y1="263.46" x2="653.21" y2="289.68" style="fill:none;stroke:#263238;stroke-miterlimit:10"></line><line x1="718.94" y1="249.42" x2="705.3" y2="263.46" style="fill:none;stroke:#263238;stroke-miterlimit:10"></line><line x1="719.48" y1="219" x2="699.66" y2="239.39" style="fill:none;stroke:#263238;stroke-miterlimit:10"></line><path d="M722.38,329.19H144.55c-10.12-2.53-15.18-14.67-15.18-14.67H722.9" style="fill:#92E3A9;stroke:#263238;stroke-miterlimit:10"></path><polyline points="722.38 340.32 144.55 340.32 144.55 329.19 722.38 329.19" style="fill:#92E3A9;stroke:#263238;stroke-miterlimit:10"></polyline></g><g id="freepik--Character--inject-38"><rect x="341.43" y="271.57" width="25.32" height="7.14" transform="translate(-87.87 199.29) rotate(-28.11)" style="fill:#263238;stroke:#263238;stroke-miterlimit:10"></rect><rect x="360.73" y="249.03" width="76.88" height="4.08" transform="translate(-71.22 217.75) rotate(-28.12)" style="fill:#b0b0b0;stroke:#263238;stroke-miterlimit:10"></rect><rect x="423.73" y="190.54" width="158.45" height="10.21" transform="translate(-32.86 260.02) rotate(-28.11)" style="fill:#b0b0b0;stroke:#263238;stroke-miterlimit:10"></rect><path d="M523.38,118.64s0,4.8.26,12.14.5,9.61,2.27,11.88,3.29,4.56,2.28,7.85-1.27,5.05,1.52,6.32a8,8,0,0,0,4.8.76s5.57,5.56,7.84,7.59,3.29,4.55,5.82,3.54,7.59-4.81,7.59-4.81l31.87-14.16s-11.38-11.89-13.91-18-2.78-18-7.84-22.77-17-8.85-24.54-6.32-18.46,8.85-18.46,8.85-7.34,4.81-6.83,6.07,2.27.26,2.27.26-2.53,5.06-1,5.31S523.38,118.64,523.38,118.64Z" style="fill:#fff;stroke:#263238;stroke-miterlimit:10"></path><path d="M531.53,120.9c-1,2.53,1.64,6.08,3.41,5.82s4.57,0,4.82,1,2.15,6.42,3.41,6.42,2.21-3,2.21-3l1,1.4,2.41-4.81s1.91-4.29,5-1.51a10.13,10.13,0,0,1,3,6.83,57,57,0,0,0,5.57,3.54c2.78,1.52,3.79-2,3.79-2s2.53,3,3.79,2.78,2.46-6.19,3-7.93c-1.85-6.41-2.57-16.16-7-20.4-5.06-4.8-17-8.85-24.54-6.32s-18.46,8.85-18.46,8.85-7.34,4.81-6.83,6.07,2.27.26,2.27.26-3.36,8-1.84,8.24,7.63-2.2,7.63-2.2S532.54,118.38,531.53,120.9Z" style="fill:#263238;stroke:#263238;stroke-miterlimit:10"></path><path d="M533.44,142.32c.66,1.4.59,2.83-.15,3.18s-1.88-.51-2.54-1.92-.6-2.83.14-3.18S532.78,140.91,533.44,142.32Z" style="fill:#263238"></path><path d="M537.8,159.36s2-1.52.76-5.82" style="fill:none;stroke:#263238;stroke-miterlimit:10"></path><path d="M527.18,141.4s-.76-4.81,5.81-5.31" style="fill:none;stroke:#263238;stroke-miterlimit:10"></path><path d="M546.15,134.06s1-7.58,5.06-8.09,6.83,4.81,5.31,10.37-2.78,8.6-5.82,7.84" style="fill:none;stroke:#263238;stroke-miterlimit:10"></path><line x1="555.76" y1="163.91" x2="557.53" y2="154.05" style="fill:none;stroke:#263238;stroke-miterlimit:10"></line><line x1="560.56" y1="149.49" x2="558.04" y2="158.6" style="fill:none;stroke:#263238;stroke-miterlimit:10"></line><path d="M645.08,155.9,628.9,148s-12.32-8.69-13.54-8.38-5.17,4.26-7,6.39a40.83,40.83,0,0,1-4,3.95l39.24,9.43Z" style="fill:#92E3A9;stroke:#263238;stroke-miterlimit:10"></path><path d="M555.76,162.48l-14.54,12.46s-7.7,5.74-8.37,8.1,46.84,95,46.84,95L644,266.7,628.9,148l-42.13.34Z" style="fill:#92E3A9;stroke:#263238;stroke-miterlimit:10"></path><line x1="595.57" y1="160.89" x2="584.44" y2="190.76" style="fill:#fff;stroke:#263238;stroke-miterlimit:10"></line><line x1="595.57" y1="174.94" x2="587.37" y2="196.62" style="fill:#fff;stroke:#263238;stroke-miterlimit:10"></line><path d="M645.08,155.9s21,6.43,22.5,7.5,7.28,7.28,7.28,10.28-1.5,7.93-2.78,8.57-21.85-1.71-21.85-1.71l-10.5-24.21Z" style="fill:#fff;stroke:#263238;stroke-miterlimit:10"></path><polygon points="628.9 147.99 653.16 161.81 650.8 185.06 633.43 184.11 628.9 147.99" style="fill:#92E3A9;stroke:#263238;stroke-miterlimit:10"></polygon><line x1="633.43" y1="184.11" x2="636.54" y2="162.59" style="fill:#fff;stroke:#263238;stroke-miterlimit:10"></line><line x1="634.06" y1="180.7" x2="632.64" y2="153.36" style="fill:none;stroke:#263238;stroke-miterlimit:10"></line><polygon points="532.85 183.04 509.93 222.14 534.2 232.58 548.69 217.75 532.85 183.04" style="fill:#92E3A9;stroke:#263238;stroke-miterlimit:10"></polygon><polyline points="534.3 211.58 548.69 217.75 526.85 216.91" style="fill:none;stroke:#263238;stroke-miterlimit:10"></polyline><path d="M490.42,221.88s-.86-5.57,0-7.07,4.49-5.35,4.71-6.64.64-3.64.64-3.64-5.78-.21-7.28-1.29-3-4.49-3.22-5.78-4.07-2.78-4.49-1.71a11.19,11.19,0,0,1-2.57,2.78s-4.72-.64-6,.64a11,11,0,0,0-1.93,2.58s-3.86.64-4.07,1.92L466,205a4.93,4.93,0,0,0-3,4.07,8.14,8.14,0,0,0,.85,4.71c.22.64,7.29,13.07,8.36,15.21a10.47,10.47,0,0,0,3.68,3.63S488.92,230.24,490.42,221.88Z" style="fill:#92E3A9;stroke:#263238;stroke-miterlimit:10"></path><path d="M512.29,220.11l-11.12,13.82L488.7,220.79s-6.07-.68-9.44,4-3.37,7.75-3.37,7.75l28.65,31.68a12.12,12.12,0,0,0,6.07-2.69c2.69-2.36,23.59-29,23.59-29Z" style="fill:#fff;stroke:#263238;stroke-miterlimit:10"></path><line x1="501.17" y1="233.93" x2="495.43" y2="241.1" style="fill:none;stroke:#263238;stroke-miterlimit:10"></line><rect x="567.07" y="363.35" width="93.96" height="13.95" style="fill:#fff;stroke:#263238;stroke-miterlimit:10"></rect><rect x="567.07" y="438.33" width="93.96" height="13.95" style="fill:#fff;stroke:#263238;stroke-miterlimit:10"></rect><rect x="661.03" y="298.84" width="14.06" height="184.24" transform="translate(1336.11 781.92) rotate(180)" style="fill:#fff;stroke:#263238;stroke-miterlimit:10"></rect><rect x="664.73" y="298.84" width="14.06" height="184.24" transform="translate(1343.51 781.92) rotate(180)" style="fill:#fff;stroke:#263238;stroke-miterlimit:10"></rect><rect x="553.01" y="298.84" width="14.06" height="184.24" transform="translate(1120.08 781.92) rotate(180)" style="fill:#fff;stroke:#263238;stroke-miterlimit:10"></rect><rect x="556.71" y="298.84" width="14.06" height="184.24" transform="translate(1127.48 781.92) rotate(180)" style="fill:#fff;stroke:#263238;stroke-miterlimit:10"></rect><polygon points="570.17 278.03 579.37 428.34 582.88 467.78 583.25 482.94 615.25 482.94 624.51 358.23 645.3 482.94 680.67 482.94 667.02 322.29 653.43 262.25 632.94 210.79 621.61 164.9 618 148 607.04 148 611.43 160.27 622.32 207.04 592.52 214.49 552.64 165.84 543.53 173.24 580.25 223.25 570.17 278.03" style="fill:#263238;stroke:#263238;stroke-miterlimit:10"></polygon><line x1="636.68" y1="293.65" x2="656.44" y2="288.83" style="fill:none;stroke:#b8b8b8;stroke-miterlimit:10"></line><path d="M614,299.43l-31.33,4.82s3.85,31.82,6.26,34.23,16.88,6.75,20.73,4.82,8.68-10.61,8.68-10.61" style="fill:none;stroke:#b8b8b8;stroke-miterlimit:10"></path><path d="M635.23,311s-1,15.43,4.82,20.25,17.84,4.34,20.25,2.41S667,322.29,667,322.29" style="fill:none;stroke:#b8b8b8;stroke-miterlimit:10"></path><line x1="577.38" y1="270.99" x2="644.39" y2="256.05" style="fill:none;stroke:#b8b8b8;stroke-miterlimit:10"></line><line x1="583.65" y1="261.35" x2="638.61" y2="250.26" style="fill:none;stroke:#b8b8b8;stroke-miterlimit:10"></line><line x1="624.51" y1="358.23" x2="632.82" y2="343.78" style="fill:none;stroke:#b8b8b8;stroke-miterlimit:10"></line><polyline points="591.81 267 590.1 260.16 594.25 259.42 595.97 266.27" style="fill:none;stroke:#b8b8b8;stroke-miterlimit:10"></polyline><polyline points="631.38 259.42 629.71 252.09 633.87 251.6 635.58 258.69" style="fill:none;stroke:#b8b8b8;stroke-miterlimit:10"></polyline><line x1="269.61" y1="304.63" x2="259.16" y2="308.48" style="fill:#fff;stroke:#263238;stroke-miterlimit:10"></line><line x1="338.04" y1="279.42" x2="274.07" y2="302.99" style="fill:#fff;stroke:#263238;stroke-miterlimit:10"></line><line x1="327.97" y1="290.85" x2="292.37" y2="310.14" style="fill:#fff;stroke:#263238;stroke-miterlimit:10"></line><line x1="336.8" y1="286.06" x2="331.41" y2="288.98" style="fill:#fff;stroke:#263238;stroke-miterlimit:10"></line><line x1="335.17" y1="301.03" x2="332.65" y2="305.58" style="fill:#fff;stroke:#263238;stroke-miterlimit:10"></line><line x1="343.03" y1="286.89" x2="337.07" y2="297.61" style="fill:#fff;stroke:#263238;stroke-miterlimit:10"></line><line x1="313.09" y1="278.79" x2="304" y2="279.42" style="fill:#fff;stroke:#263238;stroke-miterlimit:10"></line><line x1="333.89" y1="277.34" x2="316.81" y2="278.53" style="fill:#fff;stroke:#263238;stroke-miterlimit:10"></line></g><g id="freepik--Leaves--inject-38"><path d="M244,279.45s-3.43-6.55-9-8.11-13.1,0-13.1,0,4,5.62,7.17,8.11S244,279.45,244,279.45Z" style="fill:#92E3A9;stroke:#263238;stroke-miterlimit:10"></path><path d="M221.9,271.34s20.39,6.57,22.14,8.11" style="fill:none;stroke:#263238;stroke-miterlimit:10"></path><polyline points="225.71 275.75 229.22 273.93 228.66 271.12" style="fill:none;stroke:#263238;stroke-miterlimit:10;stroke-width:0.5px"></polyline><polyline points="229.07 279.45 233 275.19 233 271.26" style="fill:none;stroke:#263238;stroke-miterlimit:10;stroke-width:0.5px"></polyline><polyline points="234.13 280.1 237.63 277.01 237.21 272.66" style="fill:none;stroke:#263238;stroke-miterlimit:10;stroke-width:0.5px"></polyline><path d="M240.85,291.8s-3.43-6.55-9-8.11-13.1,0-13.1,0,4.06,5.61,7.18,8.11S240.85,291.8,240.85,291.8Z" style="fill:#92E3A9;stroke:#263238;stroke-miterlimit:10"></path><path d="M218.7,283.69s20.39,6.56,22.15,8.11" style="fill:none;stroke:#263238;stroke-miterlimit:10"></path><polyline points="222.51 288.09 226.02 286.27 225.46 283.46" style="fill:none;stroke:#263238;stroke-miterlimit:10;stroke-width:0.5px"></polyline><polyline points="225.88 291.8 229.81 287.53 229.81 283.6" style="fill:none;stroke:#263238;stroke-miterlimit:10;stroke-width:0.5px"></polyline><polyline points="230.93 292.44 234.43 289.35 234.01 285" style="fill:none;stroke:#263238;stroke-miterlimit:10;stroke-width:0.5px"></polyline><path d="M246.21,309.59s5.64-4.78,5.94-10.59-2.85-12.79-2.85-12.79-4.6,5.18-6.35,8.77S246.21,309.59,246.21,309.59Z" style="fill:#92E3A9;stroke:#263238;stroke-miterlimit:10"></path><path d="M249.3,286.21s-2,21.33-3.09,23.38" style="fill:none;stroke:#263238;stroke-miterlimit:10"></path><polyline points="245.83 290.89 248.37 293.91 250.99 292.75" style="fill:none;stroke:#263238;stroke-miterlimit:10;stroke-width:0.5px"></polyline><polyline points="242.95 294.98 247.97 297.88 251.8 297.03" style="fill:none;stroke:#263238;stroke-miterlimit:10;stroke-width:0.5px"></polyline><polyline points="243.42 300.05 247.19 302.8 251.35 301.44" style="fill:none;stroke:#263238;stroke-miterlimit:10;stroke-width:0.5px"></polyline><path d="M223.4,253.15s5.64-4.77,5.94-10.59-2.85-12.79-2.85-12.79-4.6,5.18-6.35,8.77S223.4,253.15,223.4,253.15Z" style="fill:#92E3A9;stroke:#263238;stroke-miterlimit:10"></path><path d="M226.49,229.77s-2,21.33-3.09,23.38" style="fill:none;stroke:#263238;stroke-miterlimit:10"></path><polyline points="223.02 234.45 225.56 237.47 228.18 236.32" style="fill:none;stroke:#263238;stroke-miterlimit:10;stroke-width:0.5px"></polyline><polyline points="220.14 238.54 225.16 241.44 228.99 240.59" style="fill:none;stroke:#263238;stroke-miterlimit:10;stroke-width:0.5px"></polyline><polyline points="220.61 243.61 224.38 246.36 228.54 245" style="fill:none;stroke:#263238;stroke-miterlimit:10;stroke-width:0.5px"></polyline><path d="M250.45,281.15s5.65-4.77,5.95-10.59-2.86-12.79-2.86-12.79-4.59,5.18-6.35,8.77S250.45,281.15,250.45,281.15Z" style="fill:#92E3A9;stroke:#263238;stroke-miterlimit:10"></path><path d="M253.54,257.77s-2,21.33-3.09,23.38" style="fill:none;stroke:#263238;stroke-miterlimit:10"></path><polyline points="250.07 262.45 252.62 265.48 255.23 264.32" style="fill:none;stroke:#263238;stroke-miterlimit:10;stroke-width:0.5px"></polyline><polyline points="247.19 266.54 252.21 269.45 256.04 268.59" style="fill:none;stroke:#263238;stroke-miterlimit:10;stroke-width:0.5px"></polyline><polyline points="247.66 271.61 251.44 274.36 255.59 273" style="fill:none;stroke:#263238;stroke-miterlimit:10;stroke-width:0.5px"></polyline><path d="M211.06,288.27s5.64-4.77,5.94-10.59-2.85-12.79-2.85-12.79-4.6,5.18-6.35,8.77S211.06,288.27,211.06,288.27Z" style="fill:#92E3A9;stroke:#263238;stroke-miterlimit:10"></path><path d="M214.15,264.89s-2,21.33-3.09,23.38" style="fill:none;stroke:#263238;stroke-miterlimit:10"></path><polyline points="210.68 269.57 213.22 272.6 215.84 271.44" style="fill:none;stroke:#263238;stroke-miterlimit:10;stroke-width:0.5px"></polyline><polyline points="207.8 273.66 212.82 276.57 216.65 275.71" style="fill:none;stroke:#263238;stroke-miterlimit:10;stroke-width:0.5px"></polyline><polyline points="208.27 278.73 212.04 281.48 216.2 280.12" style="fill:none;stroke:#263238;stroke-miterlimit:10;stroke-width:0.5px"></polyline><path d="M186.53,292.18s-7.4,0-11.4,4.2S169,308,169,308s6.86-.95,10.52-2.54S186.53,292.18,186.53,292.18Z" style="fill:#92E3A9;stroke:#263238;stroke-miterlimit:10"></path><path d="M169,308s15.34-14.94,17.53-15.77" style="fill:none;stroke:#263238;stroke-miterlimit:10"></path><polyline points="174.67 306.65 174.7 302.7 171.96 301.88" style="fill:none;stroke:#263238;stroke-miterlimit:10;stroke-width:0.5px"></polyline><polyline points="179.52 305.41 177.59 299.94 174.12 298.1" style="fill:none;stroke:#263238;stroke-miterlimit:10;stroke-width:0.5px"></polyline><polyline points="182.45 301.25 181.37 296.7 177.33 295.04" style="fill:none;stroke:#263238;stroke-miterlimit:10;stroke-width:0.5px"></polyline><path d="M195.65,259.31s-7.4,0-11.4,4.2-6.13,11.58-6.13,11.58,6.86-1,10.52-2.55S195.65,259.31,195.65,259.31Z" style="fill:#92E3A9;stroke:#263238;stroke-miterlimit:10"></path><path d="M178.12,275.09s15.34-14.95,17.53-15.78" style="fill:none;stroke:#263238;stroke-miterlimit:10"></path><polyline points="183.8 273.78 183.83 269.83 181.08 269.01" style="fill:none;stroke:#263238;stroke-miterlimit:10;stroke-width:0.5px"></polyline><polyline points="188.64 272.54 186.71 267.07 183.24 265.24" style="fill:none;stroke:#263238;stroke-miterlimit:10;stroke-width:0.5px"></polyline><polyline points="191.58 268.38 190.49 263.84 186.45 262.18" style="fill:none;stroke:#263238;stroke-miterlimit:10;stroke-width:0.5px"></polyline><path d="M197.1,281.66S191,285.8,190,291.55s1.45,13,1.45,13,5.13-4.65,7.27-8S197.1,281.66,197.1,281.66Z" style="fill:#92E3A9;stroke:#263238;stroke-miterlimit:10"></path><path d="M191.49,304.57s4.27-21,5.61-22.91" style="fill:none;stroke:#263238;stroke-miterlimit:10"></path><polyline points="195.45 300.29 193.25 297.01 190.52 297.88" style="fill:none;stroke:#263238;stroke-miterlimit:10;stroke-width:0.5px"></polyline><polyline points="198.76 296.54 194.08 293.11 190.18 293.54" style="fill:none;stroke:#263238;stroke-miterlimit:10;stroke-width:0.5px"></polyline><polyline points="198.84 291.45 195.38 288.31 191.11 289.2" style="fill:none;stroke:#263238;stroke-miterlimit:10;stroke-width:0.5px"></polyline><path d="M271.69,294.56s-7.24-1.5-12,1.85-8.31,10.13-8.31,10.13,6.91.43,10.82-.4S271.69,294.56,271.69,294.56Z" style="fill:#92E3A9;stroke:#263238;stroke-miterlimit:10"></path><path d="M251.38,306.54s18-11.6,20.31-12" style="fill:none;stroke:#263238;stroke-miterlimit:10"></path><polyline points="257.2 306.39 258.02 302.52 255.49 301.17" style="fill:none;stroke:#263238;stroke-miterlimit:10;stroke-width:0.5px"></polyline><polyline points="262.2 306.14 261.39 300.39 258.36 297.9" style="fill:none;stroke:#263238;stroke-miterlimit:10;stroke-width:0.5px"></polyline><polyline points="265.9 302.64 265.74 297.97 262.11 295.54" style="fill:none;stroke:#263238;stroke-miterlimit:10;stroke-width:0.5px"></polyline><path d="M153.66,286.62s-.82,6.42,2.43,10.36,9.4,6.56,9.4,6.56-.1-6.06-1.08-9.41S153.66,286.62,153.66,286.62Z" style="fill:#92E3A9;stroke:#263238;stroke-miterlimit:10"></path><path d="M165.49,303.54s-11.35-14.93-11.83-16.92" style="fill:none;stroke:#263238;stroke-miterlimit:10"></path><polyline points="164.96 298.47 161.53 298.02 160.53 300.32" style="fill:none;stroke:#263238;stroke-miterlimit:10;stroke-width:0.5px"></polyline><polyline points="164.41 294.13 159.45 295.22 157.48 298.04" style="fill:none;stroke:#263238;stroke-miterlimit:10;stroke-width:0.5px"></polyline><polyline points="161.1 291.13 157.04 291.59 155.16 294.92" style="fill:none;stroke:#263238;stroke-miterlimit:10;stroke-width:0.5px"></polyline><path d="M143.61,333.07s-7.39,0-11.4,4.19-6.13,11.58-6.13,11.58,6.86-.95,10.53-2.54S143.61,333.07,143.61,333.07Z" style="fill:#92E3A9;stroke:#263238;stroke-miterlimit:10"></path><path d="M126.08,348.84s15.34-14.95,17.53-15.77" style="fill:none;stroke:#263238;stroke-miterlimit:10"></path><polyline points="131.76 347.54 131.79 343.58 129.05 342.77" style="fill:none;stroke:#263238;stroke-miterlimit:10;stroke-width:0.5px"></polyline><polyline points="136.61 346.3 134.68 340.83 131.2 338.99" style="fill:none;stroke:#263238;stroke-miterlimit:10;stroke-width:0.5px"></polyline><polyline points="139.54 342.13 138.45 337.59 134.41 335.93" style="fill:none;stroke:#263238;stroke-miterlimit:10;stroke-width:0.5px"></polyline><path d="M110.74,327.51s-.82,6.42,2.43,10.36,9.4,6.56,9.4,6.56-.09-6.06-1.08-9.41S110.74,327.51,110.74,327.51Z" style="fill:#92E3A9;stroke:#263238;stroke-miterlimit:10"></path><path d="M122.57,344.43s-11.34-14.93-11.83-16.92" style="fill:none;stroke:#263238;stroke-miterlimit:10"></path><polyline points="122.05 339.36 118.62 338.91 117.61 341.21" style="fill:none;stroke:#263238;stroke-miterlimit:10;stroke-width:0.5px"></polyline><polyline points="121.49 335.02 116.53 336.11 114.56 338.93" style="fill:none;stroke:#263238;stroke-miterlimit:10;stroke-width:0.5px"></polyline><polyline points="118.19 332.02 114.12 332.48 112.25 335.81" style="fill:none;stroke:#263238;stroke-miterlimit:10;stroke-width:0.5px"></polyline><path d="M131.07,353.71s-.82,6.42,2.43,10.36,9.41,6.56,9.41,6.56-.1-6.06-1.09-9.41S131.07,353.71,131.07,353.71Z" style="fill:#92E3A9;stroke:#263238;stroke-miterlimit:10"></path><path d="M142.91,370.63s-11.35-14.93-11.84-16.92" style="fill:none;stroke:#263238;stroke-miterlimit:10"></path><polyline points="142.38 365.56 138.95 365.11 137.94 367.41" style="fill:none;stroke:#263238;stroke-miterlimit:10;stroke-width:0.5px"></polyline><polyline points="141.82 361.22 136.86 362.31 134.89 365.13" style="fill:none;stroke:#263238;stroke-miterlimit:10;stroke-width:0.5px"></polyline><polyline points="138.52 358.22 134.45 358.68 132.58 362.01" style="fill:none;stroke:#263238;stroke-miterlimit:10;stroke-width:0.5px"></polyline><path d="M222.09,296.09s-.83,6.43,2.42,10.36,9.41,6.57,9.41,6.57-.1-6.07-1.09-9.42S222.09,296.09,222.09,296.09Z" style="fill:#92E3A9;stroke:#263238;stroke-miterlimit:10"></path><path d="M233.92,313s-11.35-14.93-11.83-16.93" style="fill:none;stroke:#263238;stroke-miterlimit:10"></path><polyline points="233.39 307.94 229.96 307.5 228.95 309.79" style="fill:none;stroke:#263238;stroke-miterlimit:10;stroke-width:0.5px"></polyline><polyline points="232.83 303.6 227.87 304.69 225.9 307.51" style="fill:none;stroke:#263238;stroke-miterlimit:10;stroke-width:0.5px"></polyline><polyline points="229.53 300.61 225.46 301.06 223.59 304.39" style="fill:none;stroke:#263238;stroke-miterlimit:10;stroke-width:0.5px"></polyline><path d="M172.71,262.82s-4.13,2.79-4.76,6.67,1,8.78,1,8.78a36.11,36.11,0,0,0,4.9-5.41C175.27,270.58,172.71,262.82,172.71,262.82Z" style="fill:#92E3A9;stroke:#263238;stroke-miterlimit:10"></path><path d="M168.93,278.27s2.88-14.16,3.78-15.45" style="fill:none;stroke:#263238;stroke-miterlimit:10"></path><polyline points="171.6 275.39 170.12 273.17 168.28 273.76" style="fill:none;stroke:#263238;stroke-miterlimit:10;stroke-width:0.5px"></polyline><polyline points="173.83 272.86 170.68 270.54 168.05 270.83" style="fill:none;stroke:#263238;stroke-miterlimit:10;stroke-width:0.5px"></polyline><polyline points="173.89 269.42 171.56 267.3 168.67 267.91" style="fill:none;stroke:#263238;stroke-miterlimit:10;stroke-width:0.5px"></polyline><path d="M206.36,251.11s-.12-5-3.06-7.6-7.92-3.9-7.92-3.9a36,36,0,0,0,1.92,7C198.45,249.09,206.36,251.11,206.36,251.11Z" style="fill:#92E3A9;stroke:#263238;stroke-miterlimit:10"></path><path d="M195.38,239.61s10.38,10,11,11.5" style="fill:none;stroke:#263238;stroke-miterlimit:10"></path><polyline points="196.37 243.41 199.04 243.35 199.53 241.49" style="fill:none;stroke:#263238;stroke-miterlimit:10;stroke-width:0.5px"></polyline><polyline points="197.3 246.65 200.95 245.24 202.12 242.87" style="fill:none;stroke:#263238;stroke-miterlimit:10;stroke-width:0.5px"></polyline><polyline points="200.17 248.55 203.21 247.72 204.25 244.97" style="fill:none;stroke:#263238;stroke-miterlimit:10;stroke-width:0.5px"></polyline><path d="M137.54,334.05s-.12-5-3.06-7.6-7.92-3.9-7.92-3.9a36,36,0,0,0,1.92,7C129.63,332,137.54,334.05,137.54,334.05Z" style="fill:#92E3A9;stroke:#263238;stroke-miterlimit:10"></path><path d="M126.56,322.55s10.38,10,11,11.5" style="fill:none;stroke:#263238;stroke-miterlimit:10"></path><polyline points="127.55 326.35 130.22 326.29 130.71 324.42" style="fill:none;stroke:#263238;stroke-miterlimit:10;stroke-width:0.5px"></polyline><polyline points="128.48 329.59 132.13 328.18 133.3 325.8" style="fill:none;stroke:#263238;stroke-miterlimit:10;stroke-width:0.5px"></polyline><polyline points="131.35 331.48 134.39 330.66 135.43 327.9" style="fill:none;stroke:#263238;stroke-miterlimit:10;stroke-width:0.5px"></polyline><path d="M136.27,379.56s-4.8,1.35-6.61,4.84-1.83,8.64-1.83,8.64a35.71,35.71,0,0,0,6.35-3.6C136.26,387.73,136.27,379.56,136.27,379.56Z" style="fill:#92E3A9;stroke:#263238;stroke-miterlimit:10"></path><path d="M127.83,393s7.17-12.54,8.44-13.48" style="fill:none;stroke:#263238;stroke-miterlimit:10"></path><polyline points="131.27 391.14 130.55 388.57 128.63 388.55" style="fill:none;stroke:#263238;stroke-miterlimit:10;stroke-width:0.5px"></polyline><polyline points="134.18 389.44 131.91 386.25 129.32 385.7" style="fill:none;stroke:#263238;stroke-miterlimit:10;stroke-width:0.5px"></polyline><polyline points="135.31 386.2 133.76 383.45 130.84 383.12" style="fill:none;stroke:#263238;stroke-miterlimit:10;stroke-width:0.5px"></polyline><path d="M147.63,263.82s-.13-5-3.06-7.6-7.93-3.9-7.93-3.9a35.53,35.53,0,0,0,1.93,7C139.71,261.8,147.63,263.82,147.63,263.82Z" style="fill:#92E3A9;stroke:#263238;stroke-miterlimit:10"></path><path d="M136.64,252.32s10.38,10,11,11.5" style="fill:none;stroke:#263238;stroke-miterlimit:10"></path><polyline points="137.63 256.12 140.3 256.06 140.79 254.19" style="fill:none;stroke:#263238;stroke-miterlimit:10;stroke-width:0.5px"></polyline><polyline points="138.57 259.36 142.22 257.95 143.38 255.57" style="fill:none;stroke:#263238;stroke-miterlimit:10;stroke-width:0.5px"></polyline><polyline points="141.43 261.25 144.47 260.43 145.51 257.67" style="fill:none;stroke:#263238;stroke-miterlimit:10;stroke-width:0.5px"></polyline><line x1="144.26" y1="389.79" x2="144.26" y2="378.31" style="fill:none;stroke:#263238;stroke-miterlimit:10"></line><line x1="140.78" y1="459.37" x2="140.78" y2="416.58" style="fill:none;stroke:#263238;stroke-miterlimit:10"></line><line x1="141.13" y1="396.05" x2="141.13" y2="372.75" style="fill:none;stroke:#263238;stroke-miterlimit:10"></line><line x1="141.13" y1="414.14" x2="141.13" y2="402.66" style="fill:none;stroke:#263238;stroke-miterlimit:10"></line><line x1="144.26" y1="444.82" x2="144.26" y2="402.32" style="fill:none;stroke:#263238;stroke-miterlimit:10"></line><line x1="144.26" y1="481.27" x2="144.26" y2="438.76" style="fill:none;stroke:#263238;stroke-miterlimit:10"></line><line x1="144.26" y1="358.14" x2="144.26" y2="346.66" style="fill:none;stroke:#263238;stroke-miterlimit:10"></line><line x1="138" y1="406.84" x2="138" y2="470.85" style="fill:none;stroke:#263238;stroke-miterlimit:10"></line><line x1="147.74" y1="344.57" x2="147.74" y2="472.58" style="fill:none;stroke:#263238;stroke-miterlimit:10"></line><line x1="138" y1="347.35" x2="138" y2="399.88" style="fill:none;stroke:#263238;stroke-miterlimit:10"></line></g><g id="freepik--Line--inject-38"><line x1="35.03" y1="482.94" x2="731.28" y2="482.94" style="fill:none;stroke:#263238;stroke-miterlimit:10"></line></g></svg>
